# xmcd
# 
# Track frame offsets:
#     150
#     16097
#     33675
#     53435
#     73840
#     91375
#     117742
#     139380
#     160627
#     178775
#     203295
#     236432
#     283186
# 
# Disc length: 3785
# 
# Revision: 1
# Processed by: cddbd v1.5.2PL0 Copyright (c) Steve Scherf et al.
# Submitted via: fre:ac v1.0.27
# 
DISCID=b30ec70d
DTITLE=Rodney Crowell - The Outsider
DYEAR=2005
DGENRE=Country-influenced Rock
TTITLE0=Say You Love Me
TTITLE1=The Obscenity Prayer (Give It To Me)
TTITLE2=The Outsider
TTITLE3=Dancin' Circles Round the Sun
TTITLE4=Beautiful Despair
TTITLE5=Don't Get Me Started
TTITLE6=Ignorance Is the Enemy
TTITLE7=Glasgow Girl
TTITLE8=Things That Go Bump In the Day
TTITLE9=Shelter From The Storm
TTITLE10=We Can't Turn Back
TTITLE11=DATA
TTITLE12=DATA
EXTD=
EXTT0=
EXTT1=
EXTT2=
EXTT3=
EXTT4=
EXTT5=
EXTT6=
EXTT7=
EXTT8=
EXTT9=
EXTT10=
EXTT11=
EXTT12=
PLAYORDER=
